# xmcd CD database file
#
# Track frame offsets:
#	183
#	18208
#	37908
#	56508
#	78508
#	98358
#	118733
#	142083
#	159745
#	177958
#	195208
#
# Disc length: 2843 seconds
#
# Revision: 0
# Processed by: cddbd v1.5.2PL0 Copyright (c) Steve Scherf et al.
# Submitted via: CDex 1.51
#
DISCID=810b190b
DTITLE=Sartorello Forniture - Crazy Love
DYEAR=1992
DGENRE=Jazz
TTITLE0=Crazy Love
TTITLE1=Different Way
TTITLE2=India
TTITLE3=September Beach
TTITLE4=Travel Music
TTITLE5=Doctor Bubu
TTITLE6=Mirtille
TTITLE7=Soul
TTITLE8=Rugbman
TTITLE9=Summer Colours
TTITLE10=Crazy Love - Versione Vocale
EXTD=YEAR: 1992
EXTT0=
EXTT1=
EXTT2=
EXTT3=
EXTT4=
EXTT5=
EXTT6=
EXTT7=
EXTT8=
EXTT9=
EXTT10=
PLAYORDER=
